<?xml version="1.0" standalone="no"?>
<!DOCTYPE svg PUBLIC "-//W3C//DTD SVG 20010904//EN"
 "http://www.w3.org/TR/2001/REC-SVG-20010904/DTD/svg10.dtd">
<svg version="1.0" xmlns="http://www.w3.org/2000/svg"
 width="120.000000pt" height="120.000000pt" viewBox="0 0 120.000000 120.000000"
 preserveAspectRatio="xMidYMid meet">

<g transform="translate(0.000000,120.000000) scale(0.100000,-0.100000)" 
fill="#CCCCCC" stroke="none">
<path d="M239 1020 c-49 -26 -113 -100 -127 -148 -25 -84 -9 -192 45 -302 61
-124 210 -257 347 -309 l28 -11 -34 40 c-74 86 -119 234 -98 323 13 57 54 113
107 144 65 38 149 38 215 1 l45 -25 39 23 c48 29 113 40 155 25 l32 -11 -6 56
c-8 78 -48 140 -117 182 -47 27 -63 32 -120 32 -71 0 -124 -19 -176 -63 l-31
-27 -19 21 c-11 12 -40 32 -66 45 -61 31 -165 33 -219 4z"/>
<path d="M555 698 c-159 -92 -75 -364 147 -478 l68 -35 57 30 c85 43 185 146
211 218 26 67 29 155 7 196 -47 91 -169 119 -244 55 l-31 -25 -35 27 c-51 39
-125 43 -180 12z"/>
</g>
</svg>
